<?xml version="1.0" encoding="UTF-8" standalone="no"?>
<!DOCTYPE svg PUBLIC "-//W3C//DTD SVG 1.1//EN" "http://www.w3.org/Graphics/SVG/1.1/DTD/svg11.dtd">
<svg width="100%" height="100%" viewBox="0 0 398 244" version="1.1" xmlns="http://www.w3.org/2000/svg" xmlns:xlink="http://www.w3.org/1999/xlink" xml:space="preserve" xmlns:serif="http://www.serif.com/" style="fill-rule:evenodd;clip-rule:evenodd;stroke-linejoin:round;stroke-miterlimit:1.41421;">
    <g id="Artboard1" transform="matrix(0.421457,0,0,1,0,0)">
        <rect x="0" y="0" width="943.75" height="243.33" style="fill:none;"/>
        <clipPath id="_clip1">
            <rect x="0" y="0" width="943.75" height="243.33"/>
        </clipPath>
        <g clip-path="url(#_clip1)">
            <g id="Layer1" transform="matrix(2.37272,0,0,1,0,0)">
                <g transform="matrix(5.92812,0,0,5.92812,-437.389,-858.439)">
                    <path d="M118.342,159.441L118.342,156.441L119.842,156.441L119.842,154.941L121.342,154.941L121.342,153.441L124.342,153.441L124.342,151.941L125.842,151.941L125.842,150.441L121.342,150.441L121.342,151.941L118.342,151.941L118.342,150.441L119.842,150.441L119.842,148.941L127.342,148.941L127.342,150.441L128.842,150.441L128.842,153.441L127.342,153.441L127.342,154.941L125.842,154.941L125.842,156.441L122.842,156.441L122.842,157.941L128.842,157.941L128.842,159.441L118.342,159.441Z" style="fill:rgb(0,255,0);fill-rule:nonzero;"/>
                    <path d="M133.342,159.441L133.342,157.941L131.842,157.941L131.842,156.441L130.342,156.441L130.342,151.941L131.842,151.941L131.842,150.441L133.342,150.441L133.342,148.941L137.842,148.941L137.842,150.441L139.342,150.441L139.342,151.941L140.842,151.941L140.842,156.441L139.342,156.441L139.342,157.941L137.842,157.941L137.842,159.441L133.342,159.441ZM134.842,157.941L137.842,157.941L137.842,151.941L136.342,151.941L136.342,150.441L133.342,150.441L133.342,156.441L134.842,156.441L134.842,157.941Z" style="fill:rgb(0,255,0);fill-rule:nonzero;"/>
                    <path d="M119.831,167.879L119.831,167.135L119.087,167.135L119.087,166.391L118.342,166.391L118.342,164.158L119.087,164.158L119.087,163.414L119.831,163.414L119.831,162.669L123.552,162.669L123.552,163.414L120.575,163.414L120.575,164.158L119.831,164.158L119.831,166.391L120.575,166.391L120.575,167.135L122.064,167.135L122.064,165.647L121.319,165.647L121.319,164.902L123.552,164.902L123.552,167.879L119.831,167.879Z" style="fill:rgb(0,255,0);fill-rule:nonzero;"/>
                    <path d="M125.041,167.879L125.041,167.135L124.297,167.135L124.297,163.414L125.041,163.414L125.041,162.669L128.762,162.669L128.762,163.414L129.507,163.414L129.507,167.135L128.762,167.135L128.762,167.879L125.041,167.879ZM125.785,167.135L128.018,167.135L128.018,163.414L125.785,163.414L125.785,167.135Z" style="fill:rgb(0,255,0);fill-rule:nonzero;"/>
                    <g transform="matrix(1,0,0,1,-0.641727,0)">
                        <path d="M132.484,167.879L132.484,163.414L130.995,163.414L130.995,162.669L135.461,162.669L135.461,163.414L133.973,163.414L133.973,167.879L132.484,167.879Z" style="fill:rgb(0,255,0);fill-rule:nonzero;"/>
                    </g>
                    <g transform="matrix(1,0,0,1,-0.481295,0)">
                        <path d="M136.95,167.879L136.95,167.135L136.206,167.135L136.206,163.414L136.95,163.414L136.95,162.669L140.671,162.669L140.671,163.414L141.416,163.414L141.416,167.135L140.671,167.135L140.671,167.879L136.95,167.879ZM137.694,167.135L139.927,167.135L139.927,163.414L137.694,163.414L137.694,167.135Z" style="fill:rgb(0,255,0);fill-rule:nonzero;"/>
                    </g>
                    <path d="M119.842,181.722L119.842,180.222L122.842,180.222L122.842,174.222L121.342,174.222L121.342,172.722L122.842,172.722L122.842,171.222L125.842,171.222L125.842,180.222L128.842,180.222L128.842,181.722L119.842,181.722Z" style="fill:rgb(0,255,0);fill-rule:nonzero;"/>
                    <path d="M133.342,181.722L133.342,180.222L131.842,180.222L131.842,178.722L130.342,178.722L130.342,174.222L131.842,174.222L131.842,172.722L133.342,172.722L133.342,171.222L137.842,171.222L137.842,172.722L139.342,172.722L139.342,174.222L140.842,174.222L140.842,178.722L139.342,178.722L139.342,180.222L137.842,180.222L137.842,181.722L133.342,181.722ZM134.842,180.222L137.842,180.222L137.842,174.222L136.342,174.222L136.342,172.722L133.342,172.722L133.342,178.722L134.842,178.722L134.842,180.222Z" style="fill:rgb(0,255,0);fill-rule:nonzero;"/>
                </g>
                <g transform="matrix(0.665469,0,-0.339046,0.727086,111.348,-62.5294)">
                    <rect x="47" y="86" width="45" height="334.665" style="fill:rgb(255,0,0);"/>
                    <g transform="matrix(1,0,0,1,88,2.84217e-14)">
                        <rect x="47" y="86" width="45" height="334.665" style="fill:rgb(0,255,0);"/>
                    </g>
                    <g transform="matrix(1,0,0,1,132,2.84217e-14)">
                        <rect x="47" y="86" width="45" height="334.665" style="fill:rgb(0,255,255);"/>
                    </g>
                    <g transform="matrix(1,0,0,1,44,2.84217e-14)">
                        <rect x="47" y="86" width="45" height="334.665" style="fill:rgb(255,255,0);"/>
                    </g>
                </g>
            </g>
        </g>
    </g>
</svg>
