<?xml version="1.0" encoding="UTF-8" standalone="no"?>
<!DOCTYPE svg PUBLIC "-//W3C//DTD SVG 1.1//EN" "http://www.w3.org/Graphics/SVG/1.1/DTD/svg11.dtd">
<svg width="100%" height="100%" viewBox="0 0 944 244" version="1.1" xmlns="http://www.w3.org/2000/svg" xmlns:xlink="http://www.w3.org/1999/xlink" xml:space="preserve" xmlns:serif="http://www.serif.com/" style="fill-rule:evenodd;clip-rule:evenodd;stroke-linejoin:round;stroke-miterlimit:1.41421;">
    <rect id="Artboard1" x="0" y="0" width="943.75" height="243.33" style="fill:none;"/>
    <g id="Artboard11" serif:id="Artboard1">
        <g id="Layer1">
            <g transform="matrix(5.92812,0,0,5.92812,-437.389,-858.439)">
                <path d="M118.342,159.441L118.342,156.441L119.842,156.441L119.842,154.941L121.342,154.941L121.342,153.441L124.342,153.441L124.342,151.941L125.842,151.941L125.842,150.441L121.342,150.441L121.342,151.941L118.342,151.941L118.342,150.441L119.842,150.441L119.842,148.941L127.342,148.941L127.342,150.441L128.842,150.441L128.842,153.441L127.342,153.441L127.342,154.941L125.842,154.941L125.842,156.441L122.842,156.441L122.842,157.941L128.842,157.941L128.842,159.441L118.342,159.441Z" style="fill:rgb(0,255,0);fill-rule:nonzero;"/>
                <path d="M133.342,159.441L133.342,157.941L131.842,157.941L131.842,156.441L130.342,156.441L130.342,151.941L131.842,151.941L131.842,150.441L133.342,150.441L133.342,148.941L137.842,148.941L137.842,150.441L139.342,150.441L139.342,151.941L140.842,151.941L140.842,156.441L139.342,156.441L139.342,157.941L137.842,157.941L137.842,159.441L133.342,159.441ZM134.842,157.941L137.842,157.941L137.842,151.941L136.342,151.941L136.342,150.441L133.342,150.441L133.342,156.441L134.842,156.441L134.842,157.941Z" style="fill:rgb(0,255,0);fill-rule:nonzero;"/>
                <path d="M119.831,167.879L119.831,167.135L119.087,167.135L119.087,166.391L118.342,166.391L118.342,164.158L119.087,164.158L119.087,163.414L119.831,163.414L119.831,162.669L123.552,162.669L123.552,163.414L120.575,163.414L120.575,164.158L119.831,164.158L119.831,166.391L120.575,166.391L120.575,167.135L122.064,167.135L122.064,165.647L121.319,165.647L121.319,164.902L123.552,164.902L123.552,167.879L119.831,167.879Z" style="fill:rgb(0,255,0);fill-rule:nonzero;"/>
                <path d="M125.041,167.879L125.041,167.135L124.297,167.135L124.297,163.414L125.041,163.414L125.041,162.669L128.762,162.669L128.762,163.414L129.507,163.414L129.507,167.135L128.762,167.135L128.762,167.879L125.041,167.879ZM125.785,167.135L128.018,167.135L128.018,163.414L125.785,163.414L125.785,167.135Z" style="fill:rgb(0,255,0);fill-rule:nonzero;"/>
                <g transform="matrix(1,0,0,1,-0.641727,0)">
                    <path d="M132.484,167.879L132.484,163.414L130.995,163.414L130.995,162.669L135.461,162.669L135.461,163.414L133.973,163.414L133.973,167.879L132.484,167.879Z" style="fill:rgb(0,255,0);fill-rule:nonzero;"/>
                </g>
                <g transform="matrix(1,0,0,1,-0.481295,0)">
                    <path d="M136.95,167.879L136.95,167.135L136.206,167.135L136.206,163.414L136.95,163.414L136.95,162.669L140.671,162.669L140.671,163.414L141.416,163.414L141.416,167.135L140.671,167.135L140.671,167.879L136.95,167.879ZM137.694,167.135L139.927,167.135L139.927,163.414L137.694,163.414L137.694,167.135Z" style="fill:rgb(0,255,0);fill-rule:nonzero;"/>
                </g>
                <path d="M119.842,181.722L119.842,180.222L122.842,180.222L122.842,174.222L121.342,174.222L121.342,172.722L122.842,172.722L122.842,171.222L125.842,171.222L125.842,180.222L128.842,180.222L128.842,181.722L119.842,181.722Z" style="fill:rgb(0,255,0);fill-rule:nonzero;"/>
                <path d="M133.342,181.722L133.342,180.222L131.842,180.222L131.842,178.722L130.342,178.722L130.342,174.222L131.842,174.222L131.842,172.722L133.342,172.722L133.342,171.222L137.842,171.222L137.842,172.722L139.342,172.722L139.342,174.222L140.842,174.222L140.842,178.722L139.342,178.722L139.342,180.222L137.842,180.222L137.842,181.722L133.342,181.722ZM134.842,180.222L137.842,180.222L137.842,174.222L136.342,174.222L136.342,172.722L133.342,172.722L133.342,178.722L134.842,178.722L134.842,180.222Z" style="fill:rgb(0,255,0);fill-rule:nonzero;"/>
            </g>
            <g transform="matrix(0.665469,0,-0.339046,0.727086,111.348,-62.5294)">
                <rect x="47" y="86" width="45" height="334.665" style="fill:rgb(255,0,0);"/>
                <g transform="matrix(1,0,0,1,88,2.84217e-14)">
                    <rect x="47" y="86" width="45" height="334.665" style="fill:rgb(0,255,0);"/>
                </g>
                <g transform="matrix(1,0,0,1,132,2.84217e-14)">
                    <rect x="47" y="86" width="45" height="334.665" style="fill:rgb(0,255,255);"/>
                </g>
                <g transform="matrix(1,0,0,1,44,2.84217e-14)">
                    <rect x="47" y="86" width="45" height="334.665" style="fill:rgb(255,255,0);"/>
                </g>
            </g>
            <g transform="matrix(1,0,0,1,-3.25094,-21.5222)">
                <path d="M503.251,123.062L503.251,91.812L509.501,91.812L509.501,85.562L515.751,85.562L515.751,79.312L534.501,79.312L534.501,85.562L540.751,85.562L540.751,91.812L547.001,91.812L547.001,123.062L534.501,123.062L534.501,110.562L515.751,110.562L515.751,123.062L503.251,123.062ZM515.751,104.312L534.501,104.312L534.501,91.812L528.251,91.812L528.251,85.562L522.001,85.562L522.001,91.812L515.751,91.812L515.751,104.312Z" style="fill:rgb(0,255,0);fill-rule:nonzero;"/>
                <path d="M603.251,123.062L603.251,79.312L640.751,79.312L640.751,85.562L647.001,85.562L647.001,104.312L634.501,104.312L634.501,110.562L640.751,110.562L640.751,116.812L647.001,116.812L647.001,123.062L628.251,123.062L628.251,116.812L622.001,116.812L622.001,110.562L615.751,110.562L615.751,123.062L603.251,123.062ZM615.751,104.312L628.251,104.312L628.251,98.062L634.501,98.062L634.501,85.562L615.751,85.562L615.751,104.312Z" style="fill:rgb(0,255,0);fill-rule:nonzero;"/>
                <path d="M653.251,123.062L653.251,79.312L697.001,79.312L697.001,85.562L665.751,85.562L665.751,98.062L690.751,98.062L690.751,104.312L665.751,104.312L665.751,116.812L697.001,116.812L697.001,123.062L653.251,123.062Z" style="fill:rgb(0,255,0);fill-rule:nonzero;"/>
                <path d="M722.001,123.062L722.001,85.562L709.501,85.562L709.501,79.312L747.001,79.312L747.001,85.562L734.501,85.562L734.501,123.062L722.001,123.062Z" style="fill:rgb(0,255,0);fill-rule:nonzero;"/>
                <path d="M753.251,123.062L753.251,79.312L790.751,79.312L790.751,85.562L797.001,85.562L797.001,104.312L784.501,104.312L784.501,110.562L790.751,110.562L790.751,116.812L797.001,116.812L797.001,123.062L778.251,123.062L778.251,116.812L772.001,116.812L772.001,110.562L765.751,110.562L765.751,123.062L753.251,123.062ZM765.751,104.312L778.251,104.312L778.251,98.062L784.501,98.062L784.501,85.562L765.751,85.562L765.751,104.312Z" style="fill:rgb(0,255,0);fill-rule:nonzero;"/>
                <path d="M809.501,123.062L809.501,116.812L803.251,116.812L803.251,85.562L809.501,85.562L809.501,79.312L840.751,79.312L840.751,85.562L847.001,85.562L847.001,116.812L840.751,116.812L840.751,123.062L809.501,123.062ZM815.751,116.812L834.501,116.812L834.501,85.562L815.751,85.562L815.751,116.812Z" style="fill:rgb(0,255,0);fill-rule:nonzero;"/>
                <path d="M503.251,207.062L503.251,163.312L515.751,163.312L515.751,182.062L534.501,182.062L534.501,163.312L547.001,163.312L547.001,207.062L534.501,207.062L534.501,188.312L515.751,188.312L515.751,207.062L503.251,207.062Z" style="fill:rgb(0,255,0);fill-rule:nonzero;"/>
                <path d="M553.251,207.062L553.251,175.812L559.501,175.812L559.501,169.562L565.751,169.562L565.751,163.312L584.501,163.312L584.501,169.562L590.751,169.562L590.751,175.812L597.001,175.812L597.001,207.062L584.501,207.062L584.501,194.562L565.751,194.562L565.751,207.062L553.251,207.062ZM565.751,188.312L584.501,188.312L584.501,175.812L578.251,175.812L578.251,169.562L572.001,169.562L572.001,175.812L565.751,175.812L565.751,188.312Z" style="fill:rgb(0,255,0);fill-rule:nonzero;"/>
                <path d="M615.751,207.062L615.751,200.812L609.501,200.812L609.501,194.562L603.251,194.562L603.251,175.812L609.501,175.812L609.501,169.562L615.751,169.562L615.751,163.312L640.751,163.312L640.751,169.562L647.001,169.562L647.001,175.812L634.501,175.812L634.501,169.562L622.001,169.562L622.001,175.812L615.751,175.812L615.751,194.562L622.001,194.562L622.001,200.812L634.501,200.812L634.501,194.562L647.001,194.562L647.001,200.812L640.751,200.812L640.751,207.062L615.751,207.062Z" style="fill:rgb(0,255,0);fill-rule:nonzero;"/>
                <path d="M653.251,207.062L653.251,163.312L665.751,163.312L665.751,182.062L672.001,182.062L672.001,175.812L678.251,175.812L678.251,169.562L684.501,169.562L684.501,163.312L697.001,163.312L697.001,169.562L690.751,169.562L690.751,175.812L684.501,175.812L684.501,182.062L678.251,182.062L678.251,188.312L684.501,188.312L684.501,194.562L690.751,194.562L690.751,200.812L697.001,200.812L697.001,207.062L678.251,207.062L678.251,200.812L672.001,200.812L672.001,194.562L665.751,194.562L665.751,207.062L653.251,207.062Z" style="fill:rgb(0,255,0);fill-rule:nonzero;"/>
                <path d="M703.251,207.062L703.251,175.812L709.501,175.812L709.501,169.562L715.751,169.562L715.751,163.312L734.501,163.312L734.501,169.562L740.751,169.562L740.751,175.812L747.001,175.812L747.001,207.062L734.501,207.062L734.501,194.562L715.751,194.562L715.751,207.062L703.251,207.062ZM715.751,188.312L734.501,188.312L734.501,175.812L728.251,175.812L728.251,169.562L722.001,169.562L722.001,175.812L715.751,175.812L715.751,188.312Z" style="fill:rgb(0,255,0);fill-rule:nonzero;"/>
                <path d="M772.001,207.062L772.001,169.562L759.501,169.562L759.501,163.312L797.001,163.312L797.001,169.562L784.501,169.562L784.501,207.062L772.001,207.062Z" style="fill:rgb(0,255,0);fill-rule:nonzero;"/>
                <path d="M803.251,207.062L803.251,163.312L815.751,163.312L815.751,182.062L834.501,182.062L834.501,163.312L847.001,163.312L847.001,207.062L834.501,207.062L834.501,188.312L815.751,188.312L815.751,207.062L803.251,207.062Z" style="fill:rgb(0,255,0);fill-rule:nonzero;"/>
                <path d="M859.501,207.062L859.501,200.812L853.251,200.812L853.251,169.562L859.501,169.562L859.501,163.312L890.751,163.312L890.751,169.562L897.001,169.562L897.001,200.812L890.751,200.812L890.751,207.062L859.501,207.062ZM865.751,200.812L884.501,200.812L884.501,169.562L865.751,169.562L865.751,200.812Z" style="fill:rgb(0,255,0);fill-rule:nonzero;"/>
                <path d="M903.251,207.062L903.251,163.312L915.751,163.312L915.751,169.562L922.001,169.562L922.001,175.812L928.251,175.812L928.251,182.062L934.501,182.062L934.501,163.312L947.001,163.312L947.001,207.062L934.501,207.062L934.501,194.562L928.251,194.562L928.251,188.312L922.001,188.312L922.001,182.062L915.751,182.062L915.751,207.062L903.251,207.062Z" style="fill:rgb(0,255,0);fill-rule:nonzero;"/>
            </g>
        </g>
    </g>
</svg>
