<?xml version="1.0" encoding="UTF-8" standalone="no"?>
<!DOCTYPE svg PUBLIC "-//W3C//DTD SVG 1.1//EN" "http://www.w3.org/Graphics/SVG/1.1/DTD/svg11.dtd">
<svg width="100%" height="100%" viewBox="0 0 172 54" version="1.1" xmlns="http://www.w3.org/2000/svg" xmlns:xlink="http://www.w3.org/1999/xlink" xml:space="preserve" xmlns:serif="http://www.serif.com/" style="fill-rule:evenodd;clip-rule:evenodd;stroke-linejoin:round;stroke-miterlimit:1.41421;">
    <g transform="matrix(0.551226,0,0,0.427368,32.9659,30.5785)">
        <g transform="matrix(0.601478,0,0,0.775794,-59.8155,-71.5507)">
            <g id="logo">
                <g id="logo-white">
                    <path d="M222.32,94.94C222.176,99.252 221.419,103.522 220.07,107.62C218.62,111.982 216.505,116.094 213.8,119.81C210.689,124.038 207.034,127.837 202.93,131.11C198.049,135.005 192.697,138.271 187,140.83C172.627,147.497 158.873,148.973 145.74,145.26C132.607,141.547 121.633,132.057 112.82,116.79C111.867,120.023 111.02,123.38 110.28,126.86C109.559,130.269 108.624,133.629 107.48,136.92C106.383,140.089 104.804,143.071 102.8,145.76C100.72,148.47 97.993,150.615 94.87,152C91.13,153.727 87.797,154.227 84.87,153.5C82.033,152.831 79.396,151.494 77.18,149.6C75.017,147.742 73.163,145.552 71.69,143.11C70.399,141.016 69.224,138.853 68.17,136.63C64.957,129.763 61.9,122.85 59,115.89C56.1,108.93 53.187,102.217 50.26,95.75C46.407,87.417 42.957,80.333 39.91,74.5C37.446,69.5 34.258,64.89 30.45,60.82C27.555,57.718 23.747,55.616 19.58,54.82C15.58,54.153 10.76,54.857 5.12,56.93L3.4,57.73C2.735,58.007 2.115,58.381 1.56,58.84C1.492,58.884 1.413,58.907 1.332,58.907C1.147,58.907 0.984,58.786 0.93,58.61C0.45,57.396 0.167,56.113 0.09,54.81C-0.063,53.019 0.028,51.216 0.36,49.45C0.738,47.496 1.514,45.641 2.64,44C3.889,42.179 5.621,40.742 7.64,39.85C18.42,34.863 27.64,34.53 35.3,38.85C42.96,43.17 50.05,52.353 56.57,66.4C58.963,71.573 61.203,77.08 63.29,82.92C65.377,88.76 67.413,94.577 69.4,100.37C71.4,106.17 73.4,111.88 75.4,117.5C77.4,123.12 79.523,128.373 81.77,133.26C82.773,135.624 84.14,137.817 85.82,139.76C86.922,141.165 88.888,141.587 90.47,140.76C92.623,139.767 94.623,137.79 96.47,134.83C98.405,131.739 100.103,128.507 101.55,125.16C103.077,121.667 104.41,118.307 105.55,115.08C106.369,112.606 107.347,110.187 108.48,107.84L104.93,95.35C103.39,89.957 101.723,84.4 99.93,78.68C98.137,72.96 96.44,67.593 94.84,62.58C93.67,58.78 92.291,55.048 90.71,51.4C90.377,50.68 89.487,49.04 88.04,46.48C86.531,43.848 84.528,41.532 82.14,39.66C81.753,39.27 81.265,38.996 80.73,38.87C80.285,38.814 79.884,38.57 79.63,38.2C79.23,37.34 79.897,36.51 81.63,35.71C84.102,34.46 86.866,33.9 89.63,34.09C92.126,34.355 94.504,35.291 96.51,36.8C98.755,38.496 100.688,40.57 102.22,42.93C104.034,45.647 105.632,48.503 107,51.47C108.844,55.555 110.463,59.738 111.85,64C113.437,68.76 114.957,73.553 116.41,78.38C117.863,83.207 119.317,87.857 120.77,92.33C121.962,96.152 123.374,99.902 125,103.56C127.228,108.438 130.05,113.022 133.4,117.21C136.465,121.105 140.311,124.317 144.69,126.64C149.121,128.903 154.024,130.089 159,130.1C164.273,130.187 170,128.803 176.18,125.95C183.08,122.763 188.44,119.457 192.26,116.03C195.738,112.985 198.768,109.464 201.26,105.57C203.372,102.199 205.087,98.595 206.37,94.83C207.657,91.116 209.204,87.497 211,84C211.476,83.249 212.321,82.809 213.21,82.85C214.477,82.829 215.717,83.222 216.74,83.97C218.174,84.992 219.365,86.316 220.23,87.85C221.426,90.036 222.139,92.454 222.32,94.94Z" style="fill:white;fill-rule:nonzero;"/>
                    <path d="M119.73,71C121.397,70.507 123.283,69.907 125.39,69.2C127.435,68.525 129.56,68.121 131.71,68C133.76,67.863 135.81,68.284 137.64,69.22C139.487,70.16 140.913,72.05 141.92,74.89C143.914,71.298 146.335,67.961 149.13,64.95C151.847,61.851 155.372,59.565 159.31,58.35C159.763,58.217 160.457,58.053 161.39,57.86C162.458,57.681 163.554,57.784 164.57,58.16C166.005,58.754 167.219,59.782 168.04,61.1C169.436,63.39 170.358,65.937 170.75,68.59C171.463,72.677 172.253,76.737 173.12,80.77C173.847,84.357 174.743,88.22 175.81,92.36C176.877,96.5 177.94,100.38 179,104C179.922,107.331 181.13,110.577 182.61,113.7C183.559,115.631 184.61,117.511 185.76,119.33C186.404,120.399 187.191,121.375 188.1,122.23C188.682,122.669 189.121,123.271 189.36,123.96C189.673,125.02 189.147,125.753 187.78,126.16C186.076,126.621 184.296,126.726 182.55,126.47C180.426,126.188 178.374,125.51 176.5,124.47C174.289,123.226 172.332,121.577 170.73,119.61C168.824,117.257 167.431,114.532 166.64,111.61L160.87,92C159.43,87.14 158.277,83.52 157.41,81.14C156.893,79.578 156.223,78.071 155.41,76.64C154.983,76.027 154.54,75.787 154.08,75.92C152.972,76.459 152.062,77.334 151.48,78.42C150.507,79.867 149.537,81.473 148.57,83.24C147.603,85.007 146.69,86.803 145.83,88.63C144.963,90.457 144.34,91.837 143.96,92.77C144.44,97.75 145.04,102.567 145.76,107.22C146.164,110.247 146.725,113.251 147.44,116.22C147.744,117.172 148.14,118.093 148.62,118.97C149.179,120.039 150.002,120.948 151.01,121.61C149.713,122.954 148.068,123.913 146.26,124.38C144.537,124.819 142.741,124.887 140.99,124.58C139.187,124.237 137.537,123.338 136.27,122.01C134.789,120.467 133.786,118.529 133.38,116.43C132.813,113.957 132.107,110.45 131.26,105.91C130.413,101.37 129.413,96.703 128.26,91.91C127.195,87.482 125.9,83.113 124.38,78.82C122.993,74.94 121.443,72.333 119.73,71Z" style="fill:white;fill-rule:nonzero;"/>
                    <path d="M193.79,51.76C194.85,51.42 195.85,51.14 196.79,50.9C197.73,50.66 198.72,50.46 199.79,50.27C202.152,49.874 204.547,49.713 206.94,49.79C206.7,47.423 206.307,43.877 205.76,39.15C205.213,34.423 204.48,29.57 203.56,24.59C202.64,19.61 201.573,14.943 200.36,10.59C199.147,6.237 197.68,3.237 195.96,1.59C199.442,0.916 202.983,0.591 206.53,0.62C209.795,0.914 212.959,1.903 215.81,3.52C216.82,4.272 217.705,5.18 218.43,6.21C219.097,7.223 219.78,8.433 220.48,9.84C221.265,11.47 221.798,13.21 222.06,15C222.113,15.313 222.2,17.023 222.32,20.13C222.44,23.237 222.58,27.193 222.74,32C222.9,36.787 223.053,42.02 223.2,47.7C223.347,53.38 223.567,59.003 223.86,64.57C224.153,70.143 224.487,75.303 224.86,80.05C225.233,84.797 225.667,88.577 226.16,91.39C226.267,92.017 226.73,94.067 227.55,97.54C228.372,101.014 229.783,104.322 231.72,107.32C232.007,107.822 232.408,108.25 232.89,108.57C233.44,108.96 233.74,109.31 233.79,109.62C233.97,110.71 233.05,111.43 231.02,111.77C227.968,112.311 224.823,111.628 222.27,109.87C219.683,108.192 217.443,106.033 215.67,103.51C213.939,104.301 212.166,104.999 210.36,105.6C208.36,106.264 206.31,106.769 204.23,107.11C196.743,108.37 190.58,107.187 185.74,103.56C180.9,99.933 177.843,94.387 176.57,86.92C175.942,83.182 175.912,79.368 176.48,75.62C177.003,71.991 178.033,68.453 179.54,65.11C180.939,61.993 182.918,59.169 185.37,56.79C187.746,54.48 190.63,52.758 193.79,51.76ZM211.67,93.76C211.687,93.945 211.63,94.128 211.51,94.27C211.305,92.691 211.198,91.102 211.19,89.51C211.03,87.61 210.793,85 210.48,81.68C210.167,78.36 209.707,73.943 209.1,68.43C208.293,66.483 207.2,65.463 205.82,65.37C204.823,65.267 203.817,65.267 202.82,65.37C199.866,65.717 197.08,66.936 194.82,68.87C193.02,70.544 191.683,72.656 190.94,75C190.212,77.229 189.873,79.566 189.94,81.91C189.972,83.859 190.136,85.803 190.43,87.73C191.343,93.197 193.01,96.61 195.43,97.97C197.63,99.298 200.233,99.802 202.77,99.39C204.56,99.127 206.315,98.661 208,98C208.948,97.624 209.834,97.108 210.63,96.47C211.126,96.109 211.48,95.585 211.63,94.99C211.704,94.594 211.717,94.19 211.67,93.79L211.67,93.76Z" style="fill:white;fill-rule:nonzero;"/>
                    <path d="M274.56,62C274.817,64.446 274.445,66.918 273.48,69.18C272.415,71.681 270.896,73.963 269,75.91C266.915,78.068 264.429,79.797 261.68,81C258.626,82.359 255.34,83.122 252,83.25C249.83,83.385 247.651,83.169 245.55,82.61C245.989,84.518 246.846,86.304 248.06,87.84C248.998,89.004 250.132,89.995 251.41,90.77C252.465,91.385 253.624,91.802 254.83,92L257.71,92.46C259.741,92.711 261.8,92.323 263.6,91.35C265.212,90.46 266.719,89.39 268.09,88.16C269.245,87.137 270.305,86.012 271.26,84.8C272.08,83.73 272.73,83.18 273.2,83.16C273.83,83.16 274.2,83.67 274.2,84.78C274.375,87.312 273.757,89.836 272.43,92C271.051,94.175 269.236,96.041 267.1,97.48C264.746,99.074 262.154,100.282 259.42,101.06C256.543,101.906 253.558,102.328 250.56,102.31C243.747,102.31 238.343,100.35 234.35,96.43C230.357,92.51 228.023,87.073 227.35,80.12C226.897,70.633 229.017,62.727 233.71,56.4C238.403,50.073 245.02,46.707 253.56,46.3C259.407,46.02 264.29,47.057 268.21,49.41C272.13,51.763 274.247,55.96 274.56,62ZM244.66,78.17C246.213,77.623 247.847,76.99 249.56,76.27C251.269,75.557 252.865,74.6 254.3,73.43C255.693,72.313 256.877,70.959 257.8,69.43C258.743,67.748 259.161,65.822 259,63.9C258.948,61.853 258.317,59.863 257.18,58.16C256.218,56.624 254.477,55.744 252.67,55.88C250.003,56.007 247.86,57.577 246.24,60.59C244.62,63.603 243.98,68.43 244.32,75.07C244.341,75.625 244.408,76.177 244.52,76.72C244.605,77.189 244.652,77.664 244.66,78.14L244.66,78.17Z" style="fill:white;fill-rule:nonzero;"/>
                    <path d="M300.57,85.9C305.363,90.333 309.07,93.783 311.69,96.25C314.31,98.717 316.553,100.843 318.42,102.63C320.287,104.417 322.2,106.127 324.16,107.76L332.07,114.33C333.123,115.19 333.087,116.377 331.96,117.89C330.591,119.611 328.833,120.982 326.83,121.89C324.493,123.022 321.936,123.629 319.34,123.67C316.812,123.804 314.349,122.82 312.61,120.98C310.639,119.432 308.909,117.599 307.48,115.54C305.873,113.293 304.167,110.803 302.36,108.07C300.553,105.337 298.6,102.357 296.5,99.13C294.189,95.605 291.668,92.222 288.95,89C288.15,89.107 287.513,89.773 287.04,91C286.532,92.398 286.239,93.864 286.17,95.35C286.059,96.942 286.116,98.54 286.34,100.12C286.386,101.302 286.918,102.414 287.81,103.19C287.34,103.363 286.854,103.49 286.36,103.57C284.936,103.701 283.504,103.701 282.08,103.57C280.027,103.437 277.957,102.313 275.87,100.2C273.763,98.113 272.707,95.181 273,92.23C273.307,89.87 273.937,86.22 274.89,81.28C275.843,76.34 276.687,71.197 277.42,65.85C278.153,60.517 278.637,55.43 278.87,50.59C279.103,45.75 278.58,42.27 277.3,40.15C277.93,40.15 278.8,40.21 279.91,40.15C281.02,40.09 282.21,40.15 283.47,40.26C285.363,40.38 287.177,40.573 288.91,40.84C290.479,41.052 291.986,41.594 293.33,42.43C294.522,43.19 295.415,44.338 295.86,45.68C296.301,47.458 296.139,49.333 295.4,51.01C298.141,49.926 300.981,49.112 303.88,48.58C306.634,48.058 309.442,47.877 312.24,48.04C316.507,48.313 319.763,49.513 322.01,51.64C324.257,53.767 325.253,57.137 325,61.75C324.846,64.025 324.423,66.274 323.74,68.45C322.978,70.815 321.746,73.002 320.12,74.88C318.034,77.213 315.578,79.186 312.85,80.72C308.965,82.905 304.846,84.643 300.57,85.9ZM289.57,79.72C289.477,81.14 289.983,81.887 291.09,81.96C292.685,81.917 294.251,81.528 295.68,80.82C297.782,79.909 299.772,78.758 301.61,77.39C303.588,75.956 305.376,74.275 306.93,72.39C308.342,70.813 309.218,68.827 309.43,66.72C309.59,64.193 309.097,62.613 307.95,61.98C306.604,61.3 305.127,60.921 303.62,60.87C300.287,60.657 297.54,62.067 295.38,65.1C293.22,68.133 291.273,73.007 289.54,79.72L289.57,79.72Z" style="fill:white;fill-rule:nonzero;"/>
                    <path d="M337.39,0C340.185,0.432 342.938,1.101 345.62,2C348.199,2.84 350.605,4.141 352.72,5.84C354.751,7.465 356.329,9.587 357.3,12C358.317,14.842 358.558,17.904 358,20.87C357.953,21.183 357.513,22.757 356.68,25.59C355.847,28.423 354.797,31.907 353.53,36.04L349.27,50C347.69,55.127 346.197,60.223 344.79,65.29C343.383,70.357 342.143,75.093 341.07,79.5C340.003,83.9 339.257,87.51 338.83,90.33C338.71,91.117 338.463,93.28 338.09,96.82C337.702,100.288 337.984,103.798 338.92,107.16C339.199,107.722 339.534,108.255 339.92,108.75C340.282,109.169 340.459,109.718 340.41,110.27C339.95,111.163 338.86,111.48 337.14,111.22C334.465,110.908 331.952,109.772 329.95,107.97C328.114,106.23 326.713,104.082 325.86,101.7C324.939,99.192 324.406,96.559 324.28,93.89C324.133,91.18 324.264,88.463 324.67,85.78C325.751,78.605 327.193,71.49 328.99,64.46C330.75,57.607 332.4,50.69 333.94,43.71C335.482,36.709 336.637,29.628 337.4,22.5C338.152,15.019 338.149,7.481 337.39,0Z" style="fill:white;fill-rule:nonzero;"/>
                    <path d="M371.71,102C368.88,104.725 365.457,106.758 361.71,107.94C358.025,109.24 354.051,109.497 350.23,108.68C346.614,107.971 343.348,106.043 340.98,103.22C338.673,100.44 337.967,97.04 338.86,93.02C339.427,90.508 340.613,88.177 342.31,86.24C344.108,84.154 346.266,82.406 348.68,81.08C354.246,78.084 360.706,77.182 366.88,78.54C367.547,78.676 368.193,78.901 368.8,79.21C369.331,79.495 369.9,79.704 370.49,79.83C371.263,80.003 371.77,79.547 372.01,78.46C372.562,76.58 372.03,74.541 370.63,73.17C369.095,71.727 367.252,70.653 365.24,70.03C363.011,69.296 360.694,68.866 358.35,68.75C356.403,68.604 354.447,68.604 352.5,68.75C351.805,68.924 351.074,68.612 350.72,67.99C350.217,67.295 350.055,66.408 350.28,65.58C350.602,64.138 351.075,62.734 351.69,61.39C352.326,59.986 353.266,58.739 354.44,57.74C355.771,56.649 357.357,55.912 359.05,55.6C361.381,55.218 363.766,55.33 366.05,55.93C368.446,56.498 370.813,57.185 373.14,57.99C376.079,58.989 378.836,60.462 381.3,62.35C383.834,64.26 385.908,66.713 387.37,69.53C388.843,72.37 389.12,75.877 388.2,80.05C387.733,81.383 387.023,83.86 386.07,87.48C385.085,91.197 384.331,94.97 383.81,98.78C383.279,102.438 383.071,106.136 383.19,109.83C383.317,113.263 384.147,115.557 385.68,116.71C385.552,117.299 385.343,117.868 385.06,118.4C384.787,118.907 383.567,118.907 381.4,118.4C380.462,118.163 379.56,117.8 378.72,117.32C377.547,116.636 376.506,115.745 375.65,114.69C374.509,113.287 373.613,111.701 373,110C372.134,107.422 371.698,104.719 371.71,102ZM356.59,94.51C356.315,95.747 356.504,97.043 357.12,98.15C357.793,99.378 358.998,100.228 360.38,100.45C362.143,100.741 363.949,100.642 365.67,100.16C367.713,99.713 369.586,98.693 371.07,97.22C370.909,96.219 370.971,95.195 371.25,94.22C371.528,92.981 371.725,91.725 371.84,90.46C371.936,89.376 371.973,88.288 371.95,87.2C371.95,86.2 371.6,85.66 370.95,85.53C369.478,85.225 367.952,85.304 366.52,85.76C364.942,86.232 363.438,86.922 362.05,87.81C360.703,88.655 359.49,89.697 358.45,90.9C357.537,91.944 356.898,93.198 356.59,94.55L356.59,94.51Z" style="fill:white;fill-rule:nonzero;"/>
                    <path d="M397.75,62.54C399.397,63.107 401.28,63.717 403.4,64.37C405.46,64.987 407.43,65.871 409.26,67C411.01,68.079 412.434,69.614 413.38,71.44C414.333,73.28 414.393,75.647 413.56,78.54C417.273,76.782 421.185,75.479 425.21,74.66C429.223,73.719 433.419,73.909 437.33,75.21C437.777,75.363 438.443,75.633 439.33,76.02C440.305,76.493 441.14,77.214 441.75,78.11C442.572,79.428 442.96,80.97 442.86,82.52C442.665,85.195 441.934,87.803 440.71,90.19C438.917,93.93 437.197,97.69 435.55,101.47C434.057,104.803 432.537,108.47 430.99,112.47C429.443,116.47 428.047,120.26 426.8,123.84C425.61,127.089 424.704,130.435 424.09,133.84C423.74,135.963 423.503,138.102 423.38,140.25C423.283,141.494 423.357,142.746 423.6,143.97C423.813,144.667 423.813,145.413 423.6,146.11C423.2,147.17 422.333,147.467 421,147C419.344,146.384 417.833,145.435 416.56,144.21C415.001,142.73 413.736,140.969 412.83,139.02C411.754,136.722 411.12,134.242 410.96,131.71C410.775,128.702 411.218,125.688 412.26,122.86L418.94,103.56C420.6,98.773 421.767,95.157 422.44,92.71C422.929,91.15 423.264,89.546 423.44,87.92C423.44,87.167 423.22,86.713 422.78,86.56C421.565,86.354 420.316,86.536 419.21,87.08C417.577,87.687 415.853,88.43 414.04,89.31C412.227,90.19 410.437,91.12 408.67,92.1C406.903,93.08 405.593,93.84 404.74,94.38C402.233,98.707 399.917,102.973 397.79,107.18C396.35,109.887 395.051,112.668 393.9,115.51C393.597,116.461 393.386,117.439 393.27,118.43C393.105,119.622 393.246,120.837 393.68,121.96C391.841,122.3 389.944,122.123 388.2,121.45C386.544,120.803 385.044,119.811 383.8,118.54C382.532,117.215 381.71,115.525 381.45,113.71C381.145,111.593 381.457,109.433 382.35,107.49C383.323,105.15 384.787,101.887 386.74,97.7C388.693,93.513 390.583,89.14 392.41,84.58C394.164,80.366 395.696,76.064 397,71.69C398.12,67.65 398.37,64.6 397.75,62.54Z" style="fill:white;fill-rule:nonzero;"/>
                    <path d="M469.21,90C470.27,90.347 471.247,90.68 472.14,91C473.033,91.32 473.987,91.743 475,92.27C477.117,93.315 479.126,94.564 481,96C482.187,93.933 483.933,90.82 486.24,86.66C488.547,82.5 490.8,78.147 493,73.6C495.153,69.013 497.013,64.59 498.58,60.33C500.147,56.07 500.703,52.773 500.25,50.44C503.462,51.932 506.517,53.741 509.37,55.84C511.85,57.98 513.845,60.626 515.22,63.6C515.602,64.799 515.791,66.051 515.78,67.31C515.72,68.517 515.573,69.9 515.34,71.46C515.032,73.24 514.456,74.963 513.63,76.57C513.49,76.857 512.563,78.297 510.85,80.89C509.137,83.483 506.95,86.777 504.29,90.77C501.623,94.77 498.703,99.103 495.53,103.77C492.357,108.437 489.26,113.133 486.24,117.86C483.233,122.527 480.507,126.92 478.06,131.04C475.613,135.16 473.763,138.493 472.51,141.04C472.23,141.607 471.413,143.543 470.06,146.85C468.705,150.15 467.924,153.657 467.75,157.22C467.693,157.797 467.772,158.379 467.98,158.92C468.188,159.349 468.231,159.841 468.1,160.3C467.613,161.293 466.447,161.337 464.6,160.43C461.807,159.091 459.65,156.704 458.6,153.79C457.474,150.924 456.907,147.869 456.93,144.79C455.063,144.426 453.217,143.962 451.4,143.4C449.388,142.776 447.429,141.993 445.54,141.06C438.713,137.727 434.38,133.177 432.54,127.41C430.7,121.643 431.447,115.353 434.78,108.54C436.447,105.135 438.644,102.016 441.29,99.3C443.826,96.655 446.721,94.38 449.89,92.54C452.841,90.821 456.092,89.677 459.47,89.17C462.737,88.686 466.072,88.971 469.21,90ZM459.26,134.58C459.168,134.738 459.017,134.853 458.84,134.9C459.594,133.495 460.436,132.139 461.36,130.84C462.333,129.2 463.667,126.94 465.36,124.06C467.053,121.18 469.253,117.32 471.96,112.48C472.44,110.427 472.147,108.96 471.08,108.08C470.321,107.421 469.497,106.841 468.62,106.35C466.023,104.926 463.061,104.303 460.11,104.56C457.679,104.854 455.364,105.771 453.39,107.22C451.498,108.596 449.858,110.287 448.54,112.22C447.429,113.817 446.426,115.488 445.54,117.22C443.1,122.2 442.457,125.94 443.61,128.44C444.624,130.802 446.447,132.728 448.75,133.87C450.37,134.732 452.085,135.403 453.86,135.87C454.84,136.114 455.851,136.212 456.86,136.16C457.465,136.139 458.045,135.91 458.5,135.51C458.803,135.238 459.063,134.921 459.27,134.57L459.26,134.58Z" style="fill:white;fill-rule:nonzero;"/>
                </g>
            </g>
        </g>
    </g>
</svg>
